<svg width="1200" height="700" viewBox="0 0 1200 700" fill="none" xmlns="http://www.w3.org/2000/svg">
  <defs>
    <linearGradient id="bg" x1="0" y1="0" x2="1" y2="1">
      <stop offset="0" stop-color="#f7f7f2"/>
      <stop offset="1" stop-color="#ffffff"/>
    </linearGradient>
    <pattern id="grid" width="32" height="32" patternUnits="userSpaceOnUse">
      <path d="M32 0H0V32" fill="none" stroke="rgba(15,18,20,0.08)" stroke-width="1"/>
    </pattern>
  </defs>
  <rect width="1200" height="700" rx="24" fill="url(#bg)"/>
  <rect width="1200" height="700" rx="24" fill="url(#grid)" opacity="0.55"/>
  <rect x="80" y="80" width="1040" height="540" rx="28" fill="#ffffff" stroke="rgba(15,18,20,0.12)" stroke-width="2"/>
  <rect x="120" y="120" width="280" height="460" rx="20" fill="#fafaf7" stroke="rgba(15,18,20,0.1)" stroke-width="2"/>
  <rect x="140" y="150" width="200" height="12" rx="6" fill="rgba(15,18,20,0.1)"/>
  <rect x="140" y="180" width="160" height="10" rx="5" fill="rgba(15,18,20,0.08)"/>
  <rect x="140" y="212" width="220" height="10" rx="5" fill="rgba(15,18,20,0.08)"/>
  <rect x="140" y="244" width="180" height="10" rx="5" fill="rgba(15,18,20,0.08)"/>
  <rect x="140" y="276" width="200" height="10" rx="5" fill="rgba(15,18,20,0.08)"/>
  <rect x="140" y="308" width="140" height="10" rx="5" fill="rgba(15,18,20,0.08)"/>
  <rect x="140" y="340" width="210" height="10" rx="5" fill="rgba(15,18,20,0.08)"/>
  <rect x="140" y="372" width="160" height="10" rx="5" fill="rgba(15,18,20,0.08)"/>
  <rect x="140" y="404" width="220" height="10" rx="5" fill="rgba(15,18,20,0.08)"/>
  <rect x="140" y="436" width="190" height="10" rx="5" fill="rgba(15,18,20,0.08)"/>
  <rect x="140" y="468" width="210" height="10" rx="5" fill="rgba(15,18,20,0.08)"/>
  <rect x="140" y="500" width="160" height="10" rx="5" fill="rgba(15,18,20,0.08)"/>
  <rect x="140" y="532" width="200" height="10" rx="5" fill="rgba(15,18,20,0.08)"/>

  <rect x="440" y="120" width="640" height="320" rx="20" fill="#fafaf7" stroke="rgba(15,18,20,0.1)" stroke-width="2"/>
  <rect x="470" y="150" width="320" height="12" rx="6" fill="rgba(15,18,20,0.08)"/>
  <rect x="470" y="180" width="260" height="10" rx="5" fill="rgba(15,18,20,0.08)"/>
  <rect x="470" y="210" width="380" height="10" rx="5" fill="rgba(15,18,20,0.08)"/>
  <rect x="470" y="256" width="420" height="12" rx="6" fill="rgba(15,18,20,0.08)"/>
  <rect x="470" y="288" width="280" height="10" rx="5" fill="rgba(15,18,20,0.08)"/>
  <rect x="470" y="318" width="360" height="10" rx="5" fill="rgba(15,18,20,0.08)"/>
  <rect x="470" y="350" width="200" height="10" rx="5" fill="rgba(15,18,20,0.08)"/>
  <rect x="470" y="388" width="180" height="14" rx="7" fill="#ff5a2e"/>

  <rect x="440" y="470" width="640" height="110" rx="20" fill="#ffffff" stroke="rgba(15,18,20,0.1)" stroke-width="2"/>
  <rect x="470" y="505" width="220" height="10" rx="5" fill="rgba(15,18,20,0.08)"/>
  <rect x="470" y="528" width="320" height="8" rx="4" fill="rgba(15,18,20,0.08)"/>
  <rect x="470" y="548" width="260" height="8" rx="4" fill="rgba(15,18,20,0.08)"/>
  <rect x="840" y="500" width="200" height="40" rx="20" fill="rgba(255,90,46,0.15)" stroke="rgba(255,90,46,0.6)" stroke-width="2"/>

  <text x="120" y="70" fill="#0f1214" font-family="Space Grotesk, sans-serif" font-size="20" font-weight="600">Rigger Console</text>
  <text x="440" y="70" fill="#5a6166" font-family="IBM Plex Mono, monospace" font-size="12">Live preview · Embedded panel</text>
</svg>
