<svg width="1600" height="480" viewBox="0 0 1600 480" fill="none" xmlns="http://www.w3.org/2000/svg">
  <defs>
    <linearGradient id="bg" x1="0" y1="0" x2="1" y2="1">
      <stop offset="0" stop-color="#f7f7f2"/>
      <stop offset="1" stop-color="#ffffff"/>
    </linearGradient>
    <pattern id="grid" width="40" height="40" patternUnits="userSpaceOnUse">
      <path d="M40 0H0V40" fill="none" stroke="rgba(15,18,20,0.08)" stroke-width="1"/>
    </pattern>
    <linearGradient id="accent" x1="0" y1="0" x2="1" y2="0">
      <stop offset="0" stop-color="#ff5a2e"/>
      <stop offset="1" stop-color="#f5c04b"/>
    </linearGradient>
  </defs>
  <rect width="1600" height="480" rx="32" fill="url(#bg)"/>
  <rect width="1600" height="480" rx="32" fill="url(#grid)" opacity="0.6"/>
  <rect x="120" y="120" width="760" height="240" rx="28" fill="#ffffff" stroke="rgba(15,18,20,0.12)" stroke-width="2"/>
  <rect x="160" y="160" width="420" height="24" rx="12" fill="rgba(15,18,20,0.08)"/>
  <rect x="160" y="206" width="320" height="12" rx="6" fill="rgba(15,18,20,0.08)"/>
  <rect x="160" y="238" width="520" height="12" rx="6" fill="rgba(15,18,20,0.08)"/>
  <rect x="160" y="270" width="260" height="12" rx="6" fill="rgba(15,18,20,0.08)"/>
  <rect x="660" y="170" width="180" height="120" rx="18" fill="#fafaf7" stroke="rgba(15,18,20,0.1)" stroke-width="2"/>
  <rect x="680" y="190" width="140" height="10" rx="5" fill="rgba(15,18,20,0.12)"/>
  <rect x="680" y="214" width="110" height="10" rx="5" fill="rgba(15,18,20,0.12)"/>
  <rect x="680" y="238" width="120" height="10" rx="5" fill="rgba(15,18,20,0.12)"/>
  <rect x="680" y="262" width="80" height="10" rx="5" fill="rgba(15,18,20,0.12)"/>
  <rect x="980" y="90" width="420" height="300" rx="32" fill="#ffffff" stroke="rgba(15,18,20,0.12)" stroke-width="2"/>
  <rect x="1020" y="140" width="320" height="14" rx="7" fill="rgba(15,18,20,0.08)"/>
  <rect x="1020" y="176" width="280" height="12" rx="6" fill="rgba(15,18,20,0.08)"/>
  <rect x="1020" y="208" width="300" height="12" rx="6" fill="rgba(15,18,20,0.08)"/>
  <rect x="1020" y="260" width="180" height="14" rx="7" fill="url(#accent)"/>
  <circle cx="1160" cy="360" r="70" fill="rgba(255,90,46,0.15)"/>
  <circle cx="1160" cy="360" r="40" fill="rgba(15,18,20,0.08)"/>
  <rect x="140" y="80" width="180" height="6" rx="3" fill="url(#accent)"/>
  <text x="140" y="110" fill="#0f1214" font-family="Space Grotesk, sans-serif" font-size="28" font-weight="600">Rigger</text>
  <text x="140" y="142" fill="#5a6166" font-family="IBM Plex Mono, monospace" font-size="14">Live rigging console for UI systems</text>
</svg>
